<svg xmlns="http://www.w3.org/2000/svg" width="76" height="82">
  <path fill-rule="evenodd" d="M22.04 1.093c-3.564.354-5.905 1.013-8.701 2.451C7.563 6.516 3.286 11.87 1.716 18.097c-.783 3.102-.906 6.862-.322 9.833.571 2.907 1.833 5.957 3.487 8.426.849 1.268 2.784 3.532 3.489 4.084l.415.325-.722.659c-2.454 2.243-4.784 5.927-5.902 9.332-.734 2.235-1.03 3.933-1.109 6.371-.149 4.586.972 8.794 3.399 12.758 1.666 2.723 4.515 5.571 7.238 7.238 2.845 1.741 5.867 2.815 9.122 3.241 2.237.293 32.141.293 34.378 0 5.05-.661 9.557-2.879 13.134-6.465 4.534-4.545 6.84-10.405 6.624-16.836-.079-2.369-.383-4.102-1.106-6.301-1.11-3.38-3.458-7.103-5.875-9.311l-.691-.632 1.116-1.143c2.532-2.59 4.328-5.509 5.435-8.833a22.885 22.885 0 0 0 .461-12.743c-2-7.888-8.161-14.117-16.147-16.323-2.544-.703-2.033-.684-19.507-.707-8.882-.012-16.349-.001-16.593.023m31.35 4.981c2.69.2 4.862.793 7.014 1.917a17.907 17.907 0 0 1 9.204 12.022c.326 1.468.394 4.992.127 6.617-.585 3.558-2.326 6.921-4.941 9.542-1.214 1.216-3.135 2.612-5.669 4.12-.398.237-.724.46-.724.495 0 .035.326.258.724.497 2.612 1.562 4.452 2.898 5.667 4.116 2.594 2.6 4.348 5.969 4.933 9.472.383 2.301.24 5.327-.362 7.653-1.583 6.105-6.779 11.106-13.06 12.567-2.103.489-3.432.528-18.303.528s-16.2-.039-18.303-.528c-6.285-1.462-11.476-6.457-13.06-12.567-.606-2.341-.749-5.334-.363-7.643.587-3.522 2.346-6.901 4.938-9.487 1.223-1.22 3.067-2.559 5.663-4.111.398-.239.724-.462.724-.497 0-.035-.326-.258-.724-.495a97.59 97.59 0 0 1-2.561-1.638c-3.678-2.419-6.111-5.519-7.408-9.438-.597-1.803-.84-3.422-.835-5.565.011-4.864 1.73-9.017 5.146-12.434 3.053-3.052 6.871-4.811 11.14-5.131 1.816-.136 29.217-.147 31.033-.012M35.15 19.396c-3.808.476-7.097 3.02-9.106 7.043-.252.503-.457.989-.457 1.08 0 .133 4.321 2.078 4.359 1.962.006-.017.324-.658.707-1.424.534-1.068.876-1.571 1.464-2.154.928-.919 1.89-1.506 2.901-1.768.978-.253 3.201-.256 4.161-.006 1.974.514 3.418 1.794 4.144 3.674.394 1.021.431 3.076.073 4.11-.506 1.458-1.03 2.129-3.874 4.96-1.512 1.505-3.016 3.11-3.341 3.566-1.318 1.846-1.728 3.421-1.728 6.634v1.947h4.94l.003-1.425c.004-2.556.317-3.814 1.329-5.353.275-.417 1.506-1.745 2.735-2.95 3.541-3.472 4.694-5.35 5.066-8.252.171-1.332.023-2.872-.409-4.275-1.591-5.159-6.829-8.136-12.967-7.369m.659 34.873c-1.984.708-2.907 2.568-2.295 4.627.279.938 1.272 1.931 2.21 2.21 1.479.439 2.722.151 3.741-.868 1.786-1.786 1.304-4.621-.979-5.762-.876-.437-1.824-.511-2.677-.207"/>
</svg>
