<!-- Tofu composed of two separate path components -->
<svg xmlns="http://www.w3.org/2000/svg" width="76" height="82" viewBox="0 0 76 82" fill="none">
  <path d="M23.6985 3.5C12.5432 3.5 3.5 12.5432 3.5 23.6985C3.5 30.9094 7.27731 37.2343 12.9593 40.8079C7.27731 44.3815 3.5 50.7064 3.5 57.9173C3.5 69.0726 12.5432 78.1158 23.6985 78.1158H52.3015C63.4568 78.1158 72.5 69.0726 72.5 57.9173C72.5 50.7064 68.7227 44.3815 63.0407 40.8079C68.7227 37.2343 72.5 30.9094 72.5 23.6985C72.5 12.5432 63.4568 3.5 52.3015 3.5H23.6985Z" stroke="black" stroke-width="5"/>
  <path d="M34.457 48.973V46.237C34.457 44.907 34.609 43.767 34.913 42.817C35.255 41.829 35.787 40.898 36.509 40.024C37.269 39.112 38.238 38.105 39.416 37.003C40.252 36.243 40.993 35.521 41.639 34.837C42.285 34.153 42.779 33.431 43.121 32.671C43.501 31.873 43.691 30.98 43.691 29.992C43.691 28.206 43.102 26.743 41.924 25.603C40.784 24.463 39.15 23.893 37.022 23.893C35.654 23.893 34.495 24.178 33.545 24.748C32.595 25.318 31.835 26.04 31.265 26.914C30.695 27.788 30.258 28.662 29.954 29.536L25.508 27.655C25.926 26.477 26.61 25.242 27.56 23.95C28.51 22.658 29.764 21.556 31.322 20.644C32.88 19.732 34.78 19.276 37.022 19.276C39.34 19.276 41.354 19.751 43.064 20.701C44.812 21.613 46.161 22.886 47.111 24.52C48.099 26.116 48.593 27.94 48.593 29.992C48.593 31.588 48.251 33.013 47.567 34.267C46.921 35.521 46.161 36.604 45.287 37.516C44.413 38.39 43.653 39.131 43.007 39.739C42.209 40.461 41.544 41.164 41.012 41.848C40.48 42.532 40.081 43.254 39.815 44.014C39.549 44.774 39.416 45.629 39.416 46.579V48.973H34.457ZM36.965 61.342C35.939 61.342 35.065 61 34.343 60.316C33.659 59.594 33.317 58.72 33.317 57.694C33.317 56.706 33.659 55.87 34.343 55.186C35.065 54.464 35.939 54.103 36.965 54.103C37.953 54.103 38.789 54.464 39.473 55.186C40.195 55.87 40.556 56.706 40.556 57.694C40.556 58.72 40.195 59.594 39.473 60.316C38.789 61 37.953 61.342 36.965 61.342Z" fill="black"/>
</svg>
